<?xml version="1.0" standalone="no"?>
<!DOCTYPE svg PUBLIC "-//W3C//DTD SVG 20010904//EN"
 "http://www.w3.org/TR/2001/REC-SVG-20010904/DTD/svg10.dtd">
<svg version="1.0" xmlns="http://www.w3.org/2000/svg"
 width="512.000000pt" height="512.000000pt" viewBox="0 0 512.000000 512.000000"
 preserveAspectRatio="xMidYMid meet">
<metadata>
Created by potrace 1.14, written by Peter Selinger 2001-2017
</metadata>
<g transform="translate(0.000000,512.000000) scale(0.100000,-0.100000)"
fill="#000000" stroke="none">
<path d="M95 5103 c-75 -41 -92 -93 -90 -283 1 -152 -6 -139 249 -495 121
-169 383 -514 452 -595 12 -14 81 -97 154 -185 74 -88 136 -162 139 -165 4 -3
33 -36 66 -75 33 -38 62 -72 66 -75 3 -3 54 -59 114 -125 262 -287 678 -704
981 -984 38 -35 92 -85 119 -111 28 -25 79 -73 115 -105 36 -32 106 -95 155
-140 50 -45 108 -97 130 -116 22 -19 49 -43 61 -54 12 -11 34 -31 50 -45 37
-31 272 -237 302 -266 22 -20 23 -23 10 -55 -8 -19 -13 -52 -11 -74 10 -133
130 -202 249 -145 l42 21 373 -299 c206 -164 455 -361 554 -437 98 -77 206
-165 240 -195 76 -69 113 -90 174 -97 65 -7 93 9 191 110 133 136 169 243 109
329 -30 45 -49 59 -159 125 -89 53 -167 104 -207 137 -10 8 -139 112 -288 232
-148 119 -272 220 -275 223 -3 3 -45 40 -95 81 -49 41 -95 80 -101 85 -6 6
-43 37 -83 70 -71 60 -71 60 -65 102 8 56 -10 106 -51 142 -42 37 -88 46 -152
32 -26 -7 -53 -13 -59 -14 -11 -2 -181 139 -389 323 -33 30 -62 56 -65 59 -3
3 -23 21 -45 40 -22 19 -76 66 -120 106 -44 40 -107 96 -140 125 -33 30 -65
59 -71 64 -6 6 -51 48 -100 92 -318 291 -532 495 -828 790 -279 279 -530 543
-716 754 -41 47 -81 91 -89 99 -28 30 -260 310 -332 401 -137 172 -294 394
-338 475 -46 84 -63 106 -96 119 -40 17 -100 16 -130 -1z"/>
</g>
</svg>
